<svg xmlns="http://www.w3.org/2000/svg" viewBox="0 0 420 260" role="img" aria-hidden="true">
  <rect width="420" height="260" rx="14" fill="#12161e"/>
  <rect x="16" y="16" width="388" height="228" rx="10" fill="#181d27" stroke="#2a3140" stroke-width="1"/>
  <rect x="28" y="28" width="88" height="8" rx="4" fill="#8b95a8"/>
  <rect x="28" y="44" width="56" height="20" rx="6" fill="#2a3140"/>
  <rect x="90" y="44" width="56" height="20" rx="6" fill="#5b9dff" opacity="0.35"/>
  <rect x="152" y="44" width="56" height="20" rx="6" fill="#2a3140"/>
  <line x1="40" y1="210" x2="380" y2="210" stroke="#2a3140" stroke-width="1"/>
  <line x1="40" y1="80" x2="40" y2="210" stroke="#2a3140" stroke-width="1"/>
  <polyline fill="none" stroke="#5b9dff" stroke-width="2.5" stroke-linecap="round" stroke-linejoin="round"
    points="48,185 72,168 96,172 120,150 144,155 168,130 192,118 216,125 240,98 264,105 288,82 312,88 336,70 360,75 384,58"/>
  <linearGradient id="fill" x1="0" y1="0" x2="0" y2="1">
    <stop offset="0%" stop-color="#5b9dff" stop-opacity="0.35"/>
    <stop offset="100%" stop-color="#5b9dff" stop-opacity="0"/>
  </linearGradient>
  <polygon fill="url(#fill)" points="48,185 72,168 96,172 120,150 144,155 168,130 192,118 216,125 240,98 264,105 288,82 312,88 336,70 360,75 384,58 384,210 48,210"/>
  <circle cx="384" cy="58" r="4" fill="#5b9dff"/>
  <rect x="28" y="222" width="40" height="6" rx="3" fill="#4b5568"/>
  <rect x="80" y="222" width="40" height="6" rx="3" fill="#4b5568"/>
  <rect x="132" y="222" width="40" height="6" rx="3" fill="#4b5568"/>
  <rect x="184" y="222" width="40" height="6" rx="3" fill="#4b5568"/>
</svg>
